<svg width="100" height="100" viewBox="0 0 100 100" fill="none" xmlns="http://www.w3.org/2000/svg">
<path d="M26.973 17.9975L23.6915 20.5668L27.6738 25.6528L30.9552 23.0836L26.973 17.9975Z" fill="#BC9434" stroke="#BC9434" stroke-width="0.376003" stroke-linejoin="round"/>
<path d="M26.7103 15.295L21.131 19.6635L23.9569 23.2728L29.5363 18.9043L26.7103 15.295Z" fill="#BC9434" stroke="#BC9434" stroke-width="0.376003" stroke-linejoin="round"/>
<path d="M22.3354 18.8915L24.4077 21.5382" stroke="#BC9434" stroke-width="0.376003" stroke-linejoin="round"/>
<path d="M24.2246 17.413L26.2968 20.0577" stroke="#BC9434" stroke-width="0.376003" stroke-linejoin="round"/>
<path d="M23.7099 18.8318L25.7821 21.4765" stroke="#BC9434" stroke-width="0.376003" stroke-linejoin="round"/>
<path d="M69.5451 23.0872L72.8265 25.6565L76.8088 20.5704L73.5274 18.0012L69.5451 23.0872Z" fill="#BC9434" stroke="#BC9434" stroke-width="0.376003" stroke-linejoin="round"/>
<path d="M70.9671 18.9034L76.5465 23.2719L79.3724 19.6626L73.7931 15.2941L70.9671 18.9034Z" fill="#BC9434" stroke="#BC9434" stroke-width="0.376003" stroke-linejoin="round"/>
<path d="M78.1703 18.8915L76.0981 21.5382" stroke="#BC9434" stroke-width="0.376003" stroke-linejoin="round"/>
<path d="M76.2812 17.413L74.209 20.0577" stroke="#BC9434" stroke-width="0.376003" stroke-linejoin="round"/>
<path d="M76.7958 18.8318L74.7236 21.4765" stroke="#BC9434" stroke-width="0.376003" stroke-linejoin="round"/>
<path d="M53.3805 9.06229H46.6221V15.8303H53.3805V9.06229Z" fill="#BC9434" stroke="#BC9434" stroke-width="0.376003" stroke-linejoin="round"/>
<path d="M54.8918 5.17999H45.1108V11.948H54.8918V5.17999Z" fill="#BC9434" stroke="#BC9434" stroke-width="0.376003" stroke-linejoin="round"/>
<path d="M45.9898 5.15683V10.7972" stroke="#BC9434" stroke-width="0.376003" stroke-linejoin="round"/>
<path d="M46.7956 11.0497V8.02713" stroke="#BC9434" stroke-width="0.376003" stroke-linejoin="round"/>
<path d="M47.6515 5.30911V9.58853" stroke="#BC9434" stroke-width="0.376003" stroke-linejoin="round"/>
<path d="M48.5073 7.37366V11.3022" stroke="#BC9434" stroke-width="0.376003" stroke-linejoin="round"/>
<path d="M49.8182 5.35925V9.79096" stroke="#BC9434" stroke-width="0.376003" stroke-linejoin="round"/>
<path d="M74.9999 75C88.807 61.1929 88.8071 38.8071 74.9999 25C61.1928 11.1929 38.8071 11.1929 24.9999 25C11.1928 38.8071 11.1928 61.1929 24.9999 75C38.8071 88.8071 61.1928 88.8071 74.9999 75Z" fill="#BC9434" stroke="#BC9434" stroke-width="0.376003" stroke-linejoin="round"/>
<path d="M72.0694 72.0694C84.258 59.8808 84.258 40.1192 72.0694 27.9306C59.8808 15.742 40.1192 15.742 27.9306 27.9306C15.742 40.1192 15.742 59.8808 27.9306 72.0694C40.1192 84.258 59.8808 84.258 72.0694 72.0694Z" fill="white" stroke="#BC9434" stroke-width="0.376003" stroke-linejoin="round"/>
<path d="M70.3397 70.3397C81.573 59.1064 81.573 40.8936 70.3397 29.6603C59.1064 18.427 40.8936 18.427 29.6603 29.6603C18.427 40.8936 18.427 59.1064 29.6603 70.3397C40.8936 81.573 59.1064 81.573 70.3397 70.3397Z" fill="white" stroke="#BC9434" stroke-width="0.376003" stroke-linejoin="round"/>
<path d="M50.0013 21.2355V25.1352" stroke="#BC9434" stroke-width="0.376003" stroke-linejoin="round"/>
<path d="M50.0013 74.8363V78.7359" stroke="#BC9434" stroke-width="0.376003" stroke-linejoin="round"/>
<path d="M78.7505 49.9866H74.8508" stroke="#BC9434" stroke-width="0.376003" stroke-linejoin="round"/>
<path d="M25.1499 49.9866H21.2502" stroke="#BC9434" stroke-width="0.376003" stroke-linejoin="round"/>
<path d="M70.3305 29.6575L67.572 32.4141" stroke="#BC9434" stroke-width="0.376003" stroke-linejoin="round"/>
<path d="M32.4287 67.5574L29.6721 70.3159" stroke="#BC9434" stroke-width="0.376003" stroke-linejoin="round"/>
<path d="M29.6721 29.6575L32.4287 32.4141" stroke="#BC9434" stroke-width="0.376003" stroke-linejoin="round"/>
<path d="M67.572 67.5574L70.3305 70.3159" stroke="#BC9434" stroke-width="0.376003" stroke-linejoin="round"/>
<path d="M57.097 47.2474L57.5461 48.9611L28.1492 56.0511L28.0143 55.5364L57.097 47.2474Z" fill="#BC9434" stroke="#BC9434" stroke-width="0.376003" stroke-linejoin="round"/>
<path d="M51.129 50.0002C51.129 49.7772 51.0629 49.5591 50.9389 49.3737C50.815 49.1882 50.6389 49.0437 50.4329 48.9583C50.2268 48.873 50.0001 48.8507 49.7813 48.8942C49.5626 48.9377 49.3616 49.0451 49.2039 49.2028C49.0462 49.3605 48.9388 49.5614 48.8953 49.7802C48.8518 49.9989 48.8741 50.2257 48.9595 50.4317C49.0448 50.6378 49.1894 50.8139 49.3748 50.9378C49.5603 51.0617 49.7783 51.1279 50.0013 51.1279C50.1494 51.1279 50.296 51.0987 50.4329 51.042C50.5697 50.9854 50.694 50.9023 50.7987 50.7976C50.9034 50.6929 50.9865 50.5685 51.0432 50.4317C51.0998 50.2949 51.129 50.1483 51.129 50.0002V50.0002Z" fill="white" stroke="#BC9434" stroke-width="0.376003" stroke-linejoin="round"/>
<path d="M39.1697 71.3741L37.4059 70.2175C37.4059 70.2175 36.3129 71.2758 36.2493 71.3741C36.1857 71.4724 33.1824 71.831 32.5868 71.831C31.9911 71.831 31.5651 71.6902 31.4938 71.9736C31.4225 72.257 32.34 72.8892 33.6798 73.242C34.2079 73.3808 34.979 73.6584 35.7385 73.9302L35.619 74.229C35.619 74.229 37.6276 74.9692 37.9457 75C38.0536 75.0135 38.1577 74.8497 38.2483 74.6299C38.5625 74.3466 39.1697 71.3741 39.1697 71.3741Z" fill="#BC9434" stroke="#BC9434" stroke-width="0.376003" stroke-linejoin="round"/>
<path d="M69.037 56.2882L69.4611 58.3469C69.4611 58.3469 70.982 58.3662 71.1073 58.3469C71.2326 58.3277 73.6133 60.184 74.0316 60.6062C74.4499 61.0283 74.6562 61.4254 74.9068 61.2751C75.1574 61.1247 74.9511 60.0298 74.2494 58.8346C73.9718 58.3643 73.6191 57.6241 73.274 56.8954L73.569 56.7682C73.569 56.7682 72.6649 54.827 72.4644 54.5784C72.395 54.4935 72.2061 54.5359 71.9883 54.6265C71.5565 54.6131 69.037 56.2882 69.037 56.2882Z" fill="#BC9434" stroke="#BC9434" stroke-width="0.376003" stroke-linejoin="round"/>
<path d="M48.4496 50.7809C48.4496 50.7809 47.8848 51.1336 47.9561 51.3457C48.0274 51.5577 48.4843 51.9085 48.4843 51.9085C48.4843 51.9085 41.0319 58.3335 40.8912 58.8269C40.7505 59.3204 36.2455 70.2098 36.2455 70.2098L39.6999 71.9447L44.3109 60.984L52.1507 55.9721C52.1507 55.9721 57.818 64.0336 58.3828 63.9642C58.9476 63.8948 70.5426 58.4935 70.5426 58.4935L69.411 55.841L59.6146 59.1951L56.5554 52.3326C56.5554 52.3326 57.2956 51.0623 56.8388 49.8267C56.3819 48.591 55.0403 46.6884 55.0403 46.6884L48.4496 50.7809Z" fill="#BC9434" stroke="#BC9434" stroke-width="0.376003" stroke-linejoin="round"/>
<path d="M52.1487 55.9624C52.1487 55.9624 55.9038 53.7147 56.2218 53.3967" stroke="#999999" stroke-width="0.376003" stroke-linejoin="round"/>
<path d="M50.0996 50.7461C50.533 50.3598 50.9943 50.0061 51.4798 49.6879C52.22 49.2657 53.9125 49.3351 53.9125 49.3351" stroke="#999999" stroke-width="0.376003" stroke-linejoin="round"/>
<path d="M48.9065 51.8025C48.9065 51.8025 49.1571 51.5712 49.5118 51.257" stroke="#999999" stroke-width="0.376003" stroke-linejoin="round"/>
<path d="M54.7222 48.9476C54.7222 48.9476 53.3131 48.7703 52.2162 49.0536" stroke="#999999" stroke-width="0.376003" stroke-linejoin="round"/>
<path d="M53.0297 55.6097C53.0297 55.6097 55.9559 56.1398 56.9082 56.0685" stroke="#999999" stroke-width="0.376003" stroke-linejoin="round"/>
<path d="M56.5882 57.8747C56.8157 57.9422 57.0412 57.9981 57.2609 58.0424" stroke="#999999" stroke-width="0.376003" stroke-linejoin="round"/>
<path d="M52.995 56.2458C53.943 56.8054 54.9375 57.282 55.9675 57.6704" stroke="#999999" stroke-width="0.376003" stroke-linejoin="round"/>
<path d="M47.8829 50.1466L48.4477 50.7808L55.0403 46.6903L54.6162 46.2681L47.8829 50.1466Z" fill="#BC9434" stroke="#BC9434" stroke-width="0.376003" stroke-linejoin="round"/>
<path d="M57.4729 41.9811L58.0782 42.7965L59.5587 42.2837L59.256 41.557L57.4729 41.9811Z" fill="white" stroke="#BC9434" stroke-width="0.376003" stroke-linejoin="round"/>
<path d="M41.8955 36.0361C41.8955 36.0361 38.9635 36.0785 37.4619 36.0361C35.9602 35.9937 31.7637 35.1571 31.4283 35.7855C31.0929 36.414 31.8042 38.1315 33.8591 38.8023C35.914 39.4732 40.3958 40.1016 40.3958 40.1016C40.3958 40.1016 42.2386 42.4148 43.2873 43.7892C44.3359 45.1636 46.2617 48.3578 46.4294 48.6508C46.5971 48.9438 47.3508 50.7462 48.357 50.3683C49.3633 49.9905 54.8514 46.5978 54.8514 46.3453C54.8514 46.0928 54.8514 45.767 54.6856 45.5492C54.5198 45.3313 52.5478 42.9102 52.2124 42.2721C51.877 41.6341 50.6702 38.544 50.6702 38.544L53.3092 37.9156C53.3092 37.9156 56.4108 41.3507 56.9968 41.8962C57.5829 42.4418 58.086 42.2316 58.086 42.2316C58.086 42.2316 59.47 41.9791 59.5105 41.5608C59.551 41.1425 54.9015 34.0179 54.4408 33.7673C53.98 33.5167 50.8784 34.5634 49.6216 34.7716C48.3648 34.9798 46.8554 35.0646 45.0954 35.4848C44.042 35.7385 42.9731 35.9227 41.8955 36.0361V36.0361Z" fill="white" stroke="#BC9434" stroke-width="0.376003" stroke-linejoin="round"/>
<path d="M50.6491 38.5518L46.4583 39.7238" stroke="#BC9434" stroke-width="0.376003" stroke-linejoin="round"/>
<path d="M48.7618 39.0953L47.2968 40.2693" stroke="#BC9434" stroke-width="0.376003" stroke-linejoin="round"/>
<path d="M36.8219 38.463L36.1915 38.1739" stroke="#BC9434" stroke-width="0.376003" stroke-linejoin="round"/>
<path d="M37.4484 38.091L40.3823 40.1016L37.2788 38.6751" stroke="#BC9434" stroke-width="0.376003" stroke-linejoin="round"/>
<path d="M47.4414 44.5603C48.916 44.8668 51.4895 45.3178 53.66 45.2697" stroke="#BC9434" stroke-width="0.376003" stroke-linejoin="round"/>
<path d="M46.2327 44.2865C46.2327 44.2865 46.4853 44.3501 46.9151 44.4465" stroke="#BC9434" stroke-width="0.376003" stroke-linejoin="round"/>
<path d="M50.784 44.6605C50.784 44.6605 52.5304 45.0229 53.6967 45.0229" stroke="#BC9434" stroke-width="0.376003" stroke-linejoin="round"/>
<path d="M41.8415 38.2492L42.4757 40.3715L43.3007 38.1855L41.8415 38.2492Z" fill="#BC9434" stroke="#BC9434" stroke-width="0.376003" stroke-linejoin="round"/>
<path d="M42.0323 36.6492L41.1957 37.5706L42.6376 38.7253L43.4453 37.2834L42.0323 36.6492Z" fill="white" stroke="#BC9434" stroke-width="0.376003" stroke-linejoin="round"/>
<path d="M41.1957 37.5706L41.6005 39.2727L42.1769 38.3494L41.1957 37.5706Z" fill="white" stroke="#BC9434" stroke-width="0.376003" stroke-linejoin="round"/>
<path d="M38.5143 30.1317C38.5143 30.1317 37.936 31.5447 37.9669 31.9187C37.9977 32.2926 38.285 32.5239 38.256 32.9577C38.2271 33.3914 37.3327 34.1972 37.5351 34.3996C37.7375 34.602 38.4854 34.9181 38.4854 34.9181C38.4854 34.9181 39.2931 36.5913 39.5823 36.653C39.8714 36.7147 41.4271 35.9321 41.4271 35.9321L42.6376 38.7272L45.0318 35.1822L44.2241 33.5957C44.2241 33.5957 44.9161 31.8088 44.253 30.338C43.5899 28.8672 41.4849 28.7804 40.4748 28.9539C39.4647 29.1274 38.7168 29.5553 38.5143 30.1317Z" fill="white" stroke="#BC9434" stroke-width="0.376003" stroke-miterlimit="10"/>
<path d="M40.4478 29.8175C40.2133 29.7677 39.9708 29.7704 39.7375 29.8254C39.5042 29.8804 39.286 29.9863 39.0984 30.1356C38.3794 30.6541 37.7722 31.2305 37.485 30.7139C37.1977 30.1973 38.0903 29.3298 38.0903 29.3298C38.0903 29.3298 37.3693 29.1274 37.6585 28.2927C37.9476 27.458 39.0078 27.2826 39.0078 27.5718C39.0078 27.8609 38.9211 28.0903 39.7288 27.6874C40.5365 27.2846 40.9683 27.167 41.1418 27.6296C41.3152 28.0922 42.3523 27.8224 43.534 28.4932C44.7156 29.164 45.0048 29.59 44.7446 31.0898C44.4843 32.5895 44.4284 33.3085 44.226 33.5957C44.0236 33.883 43.3027 33.9697 42.9865 33.856C42.6704 33.7422 42.842 33.4223 42.842 33.4223C42.842 33.4223 43.6786 32.5856 43.3027 31.9225C42.9268 31.2594 42.3812 31.5486 42.2078 31.9225C42.0343 32.2965 42.121 32.6146 41.8608 32.6146C41.6005 32.6146 41.3711 32.4218 41.3133 32.0093C41.2555 31.5967 41.055 31.2382 40.8815 31.1727C40.708 31.1071 40.2762 31.4907 40.3032 30.8276C40.3133 30.4451 40.4557 30.0779 40.7061 29.7886L40.4478 29.8175Z" fill="#BC9434" stroke="#BC9434" stroke-width="0.376003" stroke-miterlimit="10"/>
<path d="M38.5162 32.6685C38.5088 32.4848 38.5691 32.3048 38.6856 32.1627C38.8022 32.0205 38.9669 31.9261 39.1485 31.8975" stroke="#BC9434" stroke-width="0.376003" stroke-miterlimit="10"/>
<path d="M39.1967 32.9538C39.2526 33.1099 39.2353 33.2603 39.1601 33.2873C39.0849 33.3142 38.9808 33.2063 38.9249 33.0482C38.869 32.8902 38.8864 32.7417 38.9616 32.7147C39.0367 32.6878 39.1428 32.7957 39.1967 32.9538Z" fill="#BC9434"/>
<path d="M44.974 34.255L42.4661 37.4549L42.9268 39.157L45.8684 35.0627L44.974 34.255Z" fill="white" stroke="#BC9434" stroke-width="0.376003" stroke-linejoin="round"/>
<path d="M42.4738 40.3714C42.5174 40.5161 42.5994 40.6463 42.711 40.7481C42.8227 40.8499 42.9599 40.9196 43.108 40.9497C43.6149 41.0442 44.5017 40.6644 44.945 39.5233C45.3884 38.3821 46.3079 35.2458 46.8457 34.4843C47.3835 33.7229 49.1589 33.694 50.0784 33.7557C50.9979 33.8174 51.6302 32.9326 52.4861 32.52C52.9874 32.2764 53.521 32.1057 54.0706 32.0131L55.1501 29.8175L52.9005 29.7538C52.9005 29.7538 50.6818 30.8006 50.1112 31.4656C49.5406 32.1307 49.13 32.0439 47.9252 32.2887C46.7204 32.5335 46.0573 33.0502 45.5812 34.5075C45.105 35.9648 44.4727 39.6408 43.7749 40.1478C43.5966 40.2957 43.3825 40.3941 43.1542 40.4333C42.9259 40.4726 42.6912 40.4512 42.4738 40.3714V40.3714Z" fill="#BC9434" stroke="#BC9434" stroke-width="0.376003" stroke-linejoin="round"/>
<path d="M34.684 37.9831C34.9443 38.2549 34.9828 38.6404 34.7689 38.8486C34.5549 39.0568 34.1674 39.0048 33.9072 38.7349C33.647 38.465 33.6084 38.0775 33.8224 37.8694C34.0364 37.6612 34.4219 37.7209 34.684 37.9831Z" fill="white" stroke="#BC9434" stroke-width="0.376003" stroke-linejoin="round"/>
<path d="M34.4778 38.5093L34.0595 38.066C34.0595 38.066 33.1998 35.826 32.0528 35.2265C30.9059 34.627 29.5257 35.5388 29.2384 36.3985C28.9512 37.2583 29.969 38.6925 31.037 39.1358C31.8946 39.457 32.7747 39.7148 33.6701 39.9069C33.6701 39.9069 34.1656 38.7445 34.4778 38.5093Z" fill="white" stroke="#BC9434" stroke-width="0.376003" stroke-linejoin="round"/>
<path d="M32.9916 39.7084L33.036 39.7662C33.4118 39.8607 33.6701 39.9166 33.6701 39.9166C33.6701 39.9166 34.1656 38.7445 34.4778 38.5094L34.0595 38.066C34.0595 38.066 32.8605 38.2742 32.9916 39.7084Z" fill="#BC9434" stroke="#BC9434" stroke-width="0.376003" stroke-linejoin="round"/>
<path d="M37.1091 41.9753C37.2609 42.1935 37.4361 42.3945 37.6315 42.5748C37.8396 42.7329 37.9168 42.9141 37.6565 42.889C37.3415 42.8815 37.0422 42.7498 36.8238 42.5227C36.5616 42.2374 36.3804 42.0023 36.3804 42.0023L37.1091 41.9753Z" fill="white" stroke="#BC9434" stroke-width="0.376003" stroke-linejoin="round"/>
<path d="M37.2401 41.1908C37.2401 41.1908 37.6045 41.7903 37.4753 41.9464C37.3462 42.1026 36.1452 42.1546 35.9621 42.1026C35.779 42.0505 35.9101 41.8153 35.9101 41.8153L37.2401 41.1908Z" fill="white" stroke="#BC9434" stroke-width="0.376003" stroke-linejoin="round"/>
<path d="M37.2132 40.491C37.2132 40.491 37.5004 40.9343 37.4484 41.1155C37.3963 41.2967 36.1723 41.8461 35.9062 41.8191C35.6402 41.7921 35.673 41.5859 35.673 41.5859L37.2132 40.491Z" fill="white" stroke="#BC9434" stroke-width="0.376003" stroke-linejoin="round"/>
<path d="M36.7197 39.9686C36.7197 39.9686 37.1881 39.9166 37.2402 40.2558C37.2922 40.5951 37.005 40.6992 36.8238 40.8554C36.6426 41.0115 35.86 41.5859 35.6768 41.5859C35.4937 41.5859 35.1544 41.0635 35.1544 41.0635L36.7197 39.9686Z" fill="white" stroke="#BC9434" stroke-width="0.376003" stroke-linejoin="round"/>
<path d="M34.4779 38.5093C34.4779 38.5093 35.754 38.9797 36.3535 39.1358C36.953 39.292 36.98 39.7874 36.7197 39.9686C36.4595 40.1498 35.6499 41.1425 35.4147 41.1946C35.1795 41.2466 34.8364 40.9864 34.8364 40.9864C34.8364 40.9864 34.1058 40.6201 34.0017 40.3348C33.9382 40.1622 33.8197 40.0152 33.6644 39.9165C33.6644 39.9165 33.5911 38.8486 34.4779 38.5093Z" fill="white" stroke="#BC9434" stroke-width="0.376003" stroke-linejoin="round"/>
<path d="M34.8422 40.9864C34.8422 40.9864 34.634 40.491 34.8171 40.3599C35.0003 40.2289 35.2855 40.5161 35.2855 40.5161C35.3271 40.365 35.3978 40.2236 35.4937 40.0997" stroke="#BC9434" stroke-width="0.376003" stroke-linejoin="round"/>
<path d="M58.0879 42.7965C58.1568 43.1703 58.2 43.5484 58.217 43.9281C58.1958 44.1922 57.7351 45.2909 57.712 45.3565C57.6888 45.422 57.8662 45.6861 57.9317 45.7728C57.9973 45.8596 58.3057 45.8172 58.5466 46.0138C58.7876 46.2104 59.0729 46.6962 59.4257 46.5921C59.7784 46.488 60.004 46.0138 60.004 46.0138C60.004 46.0138 60.8155 45.5319 60.8367 45.2909C60.8478 44.9939 60.8107 44.6971 60.7268 44.4119C60.6613 44.2191 59.5702 42.2915 59.5702 42.2915L58.0879 42.7965Z" fill="white" stroke="#BC9434" stroke-width="0.376003" stroke-linejoin="round"/>
<path d="M58.3173 45.1578C58.3173 45.1578 58.7337 45.2234 58.911 45.8614" stroke="#BC9434" stroke-width="0.376003" stroke-linejoin="round"/>
<path d="M58.5371 45.4875L57.5925 45.9713L58.4715 47.6176" stroke="#BC9434" stroke-width="1.12801" stroke-linecap="round" stroke-linejoin="round"/>
<path d="M60.8426 44.6971L61.1047 44.5872L61.9837 46.3433" stroke="#BC9434" stroke-width="1.12801" stroke-linejoin="round"/>
<path d="M65.2365 44.5811L55.7888 48.7974C55.4203 48.9618 55.2549 49.3938 55.4194 49.7623L57.9545 55.4429C58.1189 55.8113 58.5509 55.9767 58.9194 55.8123L68.3671 51.596C68.7355 51.4316 68.9009 50.9996 68.7365 50.6311L66.2014 44.9506C66.0369 44.5821 65.6049 44.4167 65.2365 44.5811Z" fill="#BC9434" stroke="#BC9434" stroke-width="0.376003" stroke-linejoin="round"/>
</svg>
