<svg width="93" height="77" viewBox="0 0 93 77" fill="none" xmlns="http://www.w3.org/2000/svg">
<path d="M16.6019 59.9837V60.6341C16.6019 62.607 16.0815 63.9946 15.0409 64.7967C14.011 65.5989 12.1899 66 9.57737 66H1.41465V54.6177H9.47981C12.1032 54.6177 13.946 55.0242 15.0083 55.8373C16.0707 56.6394 16.6019 58.0216 16.6019 59.9837ZM8.87817 56.634H3.88623V63.9837H8.87817C10.3308 63.9837 11.4311 63.8645 12.179 63.626C12.927 63.3875 13.4311 63.0243 13.6913 62.5365C13.9623 62.0487 14.0978 61.3387 14.0978 60.4064V60.2438C14.0978 59.3116 13.9623 58.6015 13.6913 58.1137C13.4311 57.6151 12.927 57.2465 12.179 57.008C11.4311 56.7587 10.3308 56.634 8.87817 56.634ZM29.3017 60.7804V66H27.0415V64.2764H26.9765C26.467 65.5339 24.9819 66.1626 22.5212 66.1626C19.681 66.1626 18.2609 65.252 18.2609 63.4309V63.3008C18.2718 61.7289 19.2853 60.9105 21.3016 60.8455L27.0415 60.6503V60.6015C27.0415 59.8861 26.8031 59.4037 26.3261 59.1544C25.86 58.8942 25.0795 58.7641 23.9846 58.7641C23.0848 58.7641 22.4182 58.8508 21.9846 59.0243C21.5509 59.1869 21.2366 59.4796 21.0415 59.9024H18.6837C18.933 58.9701 19.4588 58.2926 20.261 57.8698C21.0631 57.4362 22.3043 57.2194 23.9846 57.2194H24.4236C26.1689 57.2194 27.4155 57.4904 28.1635 58.0324C28.9223 58.5744 29.3017 59.4904 29.3017 60.7804ZM20.5536 63.2683V63.3333C20.5536 63.8103 20.765 64.1517 21.1878 64.3577C21.6214 64.5637 22.2935 64.6666 23.2041 64.6666C24.3532 64.6666 25.28 64.4607 25.9846 64.0488C26.6892 63.6368 27.0415 63.0514 27.0415 62.2926V62.0487L22.2772 62.2276C21.6702 62.2493 21.2312 62.3414 20.9602 62.504C20.6891 62.6666 20.5536 62.9214 20.5536 63.2683ZM41.719 57.382L35.4587 68.7643H33.0684L34.727 65.9837L29.9464 57.382H32.4018L35.8977 63.7398H36.0116L39.3612 57.382H41.719Z" fill="white"/>
<path d="M50.3677 56.7804V66H47.8961V56.7804H42.0261V54.6177H56.2377V56.7804H50.3677ZM66.1417 60.7804V66H63.8815V64.2764H63.8164C63.307 65.5339 61.8218 66.1626 59.3611 66.1626C56.521 66.1626 55.1009 65.252 55.1009 63.4309V63.3008C55.1117 61.7289 56.1253 60.9105 58.1416 60.8455L63.8815 60.6503V60.6015C63.8815 59.8861 63.643 59.4037 63.166 59.1544C62.6999 58.8942 61.9194 58.7641 60.8245 58.7641C59.9248 58.7641 59.2581 58.8508 58.8245 59.0243C58.3909 59.1869 58.0765 59.4796 57.8814 59.9024H55.5236C55.773 58.9701 56.2987 58.2926 57.1009 57.8698C57.9031 57.4362 59.1443 57.2194 60.8245 57.2194H61.2636C63.0088 57.2194 64.2555 57.4904 65.0035 58.0324C65.7623 58.5744 66.1417 59.4904 66.1417 60.7804ZM57.3936 63.2683V63.3333C57.3936 63.8103 57.605 64.1517 58.0277 64.3577C58.4614 64.5637 59.1335 64.6666 60.044 64.6666C61.1931 64.6666 62.1199 64.4607 62.8246 64.0488C63.5292 63.6368 63.8815 63.0514 63.8815 62.2926V62.0487L59.1172 62.2276C58.5101 62.2493 58.0711 62.3414 57.8001 62.504C57.5291 62.6666 57.3936 62.9214 57.3936 63.2683ZM73.6448 66.1626H73.2871C71.5093 66.1626 70.1922 65.9837 69.3358 65.626C68.4795 65.2574 67.932 64.6233 67.6935 63.7235H70.1163C70.3223 64.0379 70.6854 64.2547 71.2058 64.374C71.737 64.4824 72.512 64.5366 73.531 64.5366C74.7668 64.5366 75.6178 64.4607 76.0839 64.3089C76.55 64.1463 76.7939 63.859 76.8156 63.4471V63.3983C76.8156 63.084 76.6639 62.8726 76.3603 62.7642C76.0568 62.6449 75.4768 62.5691 74.6205 62.5365L71.4985 62.4227C70.2518 62.3794 69.3575 62.1734 68.8155 61.8048C68.2735 61.4362 68.0025 60.8563 68.0025 60.065V59.8861C68.0025 58.9105 68.4307 58.2221 69.2871 57.821C70.1434 57.4199 71.4659 57.2194 73.2546 57.2194H73.466C75.092 57.2194 76.3061 57.4145 77.1083 57.8048C77.9105 58.195 78.4796 58.8129 78.8156 59.6584H76.3603C76.0026 59.1056 74.9619 58.8292 73.2383 58.8292C72.1218 58.8292 71.3467 58.905 70.9131 59.0568C70.4795 59.1977 70.2627 59.4525 70.2627 59.8211V59.8698C70.2627 60.1842 70.409 60.3956 70.7017 60.504C71.0269 60.6232 71.6123 60.6991 72.4578 60.7316L75.5798 60.8455C76.8481 60.8997 77.7425 61.1056 78.2628 61.4634C78.794 61.8211 79.0595 62.401 79.0595 63.2032V63.3658C79.0595 64.4173 78.6259 65.149 77.7587 65.561C76.8915 65.9621 75.5202 66.1626 73.6448 66.1626ZM82.9665 63.5609V66H80.69V54.6177H82.9665V61.317H83.0315L88.6576 57.382H91.8284L86.5926 61.0406L92.2837 66H89.0804L84.869 62.2764H84.8039L82.9665 63.5609Z" fill="#FED36A"/>
<g opacity="0.3">
<path d="M64.0984 17.4912C65.9781 17.2717 67.3353 15.4665 67.1298 13.4592C66.9243 11.4519 65.2338 10.0026 63.354 10.2221C61.4743 10.4416 60.1171 12.2467 60.3226 14.254C60.5281 16.2613 62.2186 17.7106 64.0984 17.4912Z" stroke="#EB996E" stroke-width="0.376003" stroke-linecap="round" stroke-linejoin="round"/>
<path d="M66.2964 15.3402C67.0623 13.8257 66.5334 11.935 65.1152 11.1172C63.697 10.2994 61.9264 10.8641 61.1605 12.3785C60.3946 13.893 60.9235 15.7837 62.3417 16.6015C63.7599 17.4194 65.5305 16.8546 66.2964 15.3402Z" stroke="#EB996E" stroke-width="0.376003" stroke-linecap="round" stroke-linejoin="round"/>
<path d="M64.9692 14.4823C64.9692 13.4343 63.5772 13.4107 63.5772 12.9732C63.5772 12.7432 63.6904 12.6734 63.9224 12.6734C64.1222 12.6734 64.2907 12.7658 64.4831 12.9506L64.9434 12.3853C64.7309 12.1311 64.4441 11.9613 64.1296 11.9036V11.3138H63.5229V11.9203C63.0027 12.0403 62.6943 12.4365 62.6943 13.0194C62.6943 14.0271 64.0872 14.091 64.0872 14.5521C64.0872 14.7763 63.9786 14.8746 63.7089 14.8746C63.4824 14.8746 63.2559 14.7822 62.964 14.5521L62.5654 15.2206C62.8391 15.4621 63.1728 15.6131 63.5256 15.6552V16.2342H64.1305V15.6149C64.6912 15.4723 64.9692 15.0378 64.9692 14.4823Z" stroke="#EB996E" stroke-width="0.376003" stroke-linecap="round" stroke-linejoin="round"/>
</g>
<g opacity="0.3">
<path d="M65.7664 34.9487C66.6288 34.9487 67.3279 34.2022 67.3279 33.2814C67.3279 32.3605 66.6288 31.614 65.7664 31.614C64.9041 31.614 64.205 32.3605 64.205 33.2814C64.205 34.2022 64.9041 34.9487 65.7664 34.9487Z" stroke="#EB996E" stroke-width="0.376003" stroke-linecap="round" stroke-linejoin="round"/>
<path d="M66.7074 34.2868C67.2273 33.7316 67.2273 32.8315 66.7074 32.2763C66.1875 31.7212 65.3446 31.7212 64.8247 32.2764C64.3048 32.8315 64.3048 33.7316 64.8247 34.2868C65.3446 34.8419 66.1875 34.8419 66.7074 34.2868Z" stroke="#EB996E" stroke-width="0.376003" stroke-linecap="round" stroke-linejoin="round"/>
<path d="M66.3327 33.5665C66.3327 33.0887 65.6974 33.0749 65.6974 32.8783C65.6974 32.7731 65.749 32.7416 65.8548 32.7416C65.9524 32.7469 66.0443 32.7919 66.1117 32.8675L66.3207 32.6099C66.2242 32.495 66.0946 32.4175 65.9524 32.3897V32.1213H65.6762V32.3976C65.5643 32.4148 65.4626 32.4764 65.3911 32.57C65.3197 32.6635 65.2838 32.7824 65.2905 32.9029C65.2905 33.363 65.9257 33.3944 65.9257 33.6019C65.9257 33.7051 65.876 33.7493 65.7536 33.7493C65.6281 33.742 65.5085 33.6901 65.4139 33.6019L65.2297 33.9076C65.3547 34.0175 65.507 34.0858 65.6679 34.1042V34.3687H65.9441V34.0826C66.0568 34.0621 66.1584 33.9983 66.23 33.9032C66.3016 33.8081 66.3381 33.6883 66.3327 33.5665Z" stroke="#EB996E" stroke-width="0.376003" stroke-linecap="round" stroke-linejoin="round"/>
</g>
<g opacity="0.3">
<path d="M37.7161 6.78712C39.0526 6.55877 39.9628 5.21669 39.7489 3.78949C39.5351 2.36229 38.2783 1.39043 36.9417 1.61877C35.6052 1.84712 34.6951 3.1892 34.9089 4.6164C35.1228 6.0436 36.3796 7.01546 37.7161 6.78712Z" stroke="#EB996E" stroke-width="0.376003" stroke-linecap="round" stroke-linejoin="round"/>
<path d="M39.0929 5.39996C39.711 4.35966 39.4222 2.98134 38.448 2.3214C37.4738 1.66146 36.183 1.96981 35.565 3.01011C34.947 4.05041 35.2358 5.42873 36.21 6.08867C37.1842 6.74861 38.4749 6.44026 39.0929 5.39996Z" stroke="#EB996E" stroke-width="0.376003" stroke-linecap="round" stroke-linejoin="round"/>
<path d="M38.217 4.65222C38.217 3.90211 37.2208 3.8854 37.2208 3.5708C37.2208 3.40662 37.3018 3.35648 37.4685 3.35648C37.6211 3.36387 37.7651 3.43439 37.8699 3.5531L38.1976 3.14905C38.0455 2.96675 37.8401 2.84478 37.6149 2.80299V2.38419H37.1822V2.8197C37.0096 2.84929 36.8534 2.94599 36.7436 3.09119C36.6338 3.23639 36.5782 3.41983 36.5874 3.60619C36.5874 4.32779 37.5836 4.37302 37.5836 4.70334C37.5836 4.86359 37.5072 4.93437 37.3138 4.93437C37.1518 4.93437 36.9888 4.86851 36.7808 4.70334L36.4954 5.17917C36.6907 5.35274 36.9296 5.46112 37.1822 5.49081V5.90667H37.6149V5.46329C37.7901 5.42877 37.9477 5.32756 38.0585 5.17842C38.1692 5.02928 38.2255 4.84232 38.217 4.65222Z" stroke="#EB996E" stroke-width="0.376003" stroke-linecap="round" stroke-linejoin="round"/>
</g>
<g opacity="0.3">
<path d="M18.1658 35.3877C19.017 35.2401 19.5951 34.3837 19.4569 33.4747C19.3187 32.5657 18.5167 31.9485 17.6655 32.096C16.8143 32.2436 16.2362 33.1 16.3744 34.009C16.5126 34.918 17.3146 35.5352 18.1658 35.3877Z" stroke="#EB996E" stroke-width="0.376003" stroke-linecap="round" stroke-linejoin="round"/>
<path d="M19.2452 33.7425C19.2452 33.4613 19.1671 33.1865 19.0208 32.9527C18.8745 32.7189 18.6666 32.5367 18.4234 32.4291C18.1801 32.3215 17.9124 32.2934 17.6542 32.3482C17.396 32.4031 17.1588 32.5385 16.9726 32.7373C16.7864 32.9361 16.6596 33.1894 16.6082 33.4652C16.5569 33.7409 16.5832 34.0268 16.684 34.2865C16.7848 34.5463 16.9554 34.7683 17.1743 34.9245C17.3932 35.0807 17.6506 35.1641 17.9139 35.1641C18.267 35.1641 18.6056 35.0143 18.8553 34.7477C19.1049 34.4811 19.2452 34.1195 19.2452 33.7425V33.7425Z" stroke="#EB996E" stroke-width="0.376003" stroke-linecap="round" stroke-linejoin="round"/>
<path d="M18.4801 34.0285C18.4801 33.5498 17.8458 33.537 17.8458 33.3404C17.8458 33.2352 17.8974 33.2037 18.0032 33.2037C18.1006 33.2088 18.1923 33.2539 18.2592 33.3296L18.4682 33.072C18.3719 32.9569 18.2422 32.8797 18.0999 32.8527V32.5834H17.8237V32.8606C17.7136 32.8792 17.6138 32.9407 17.5437 33.0334C17.4736 33.126 17.4383 33.2431 17.4444 33.362C17.4444 33.8211 18.0797 33.8536 18.0797 34.061C18.0797 34.1593 18.0309 34.2075 17.9075 34.2075C17.7821 34.2004 17.6626 34.1489 17.5678 34.061L17.3837 34.3658C17.5089 34.4751 17.6611 34.5434 17.8219 34.5624V34.8258H18.0981V34.5447C18.2097 34.5231 18.3101 34.4587 18.3804 34.3637C18.4508 34.2687 18.4862 34.1495 18.4801 34.0285V34.0285Z" stroke="#EB996E" stroke-width="0.376003" stroke-linecap="round" stroke-linejoin="round"/>
</g>
<g opacity="0.3">
<path d="M57.0625 42.8584C57.9152 42.7215 58.5026 41.8724 58.3744 40.9617C58.2462 40.0511 57.451 39.4239 56.5982 39.5608C55.7454 39.6977 55.1581 40.5469 55.2863 41.4575C55.4145 42.3681 56.2097 42.9954 57.0625 42.8584Z" stroke="#EB996E" stroke-width="0.376003" stroke-linecap="round" stroke-linejoin="round"/>
<path d="M58.1601 41.2121C58.1597 40.931 58.0813 40.6564 57.9348 40.4229C57.7883 40.1894 57.5803 40.0075 57.337 39.9002C57.0937 39.7929 56.8261 39.765 56.568 39.8201C56.3099 39.8751 56.0728 40.0107 55.8868 40.2096C55.7008 40.4085 55.5742 40.6618 55.523 40.9375C55.4718 41.2132 55.4983 41.4989 55.5991 41.7586C55.6999 42.0182 55.8705 42.2401 56.0894 42.3962C56.3083 42.5523 56.5656 42.6357 56.8288 42.6357C57.0038 42.6358 57.1771 42.5991 57.3388 42.5275C57.5005 42.456 57.6474 42.3511 57.7711 42.2189C57.8947 42.0866 57.9928 41.9297 58.0595 41.7569C58.1263 41.5841 58.1604 41.399 58.1601 41.2121V41.2121Z" stroke="#EB996E" stroke-width="0.376003" stroke-linecap="round" stroke-linejoin="round"/>
<path d="M57.395 41.4972C57.395 41.0194 56.7607 41.0057 56.7607 40.8091C56.7607 40.7039 56.8122 40.6724 56.9181 40.6724C57.0154 40.6775 57.1072 40.7226 57.1741 40.7982L57.383 40.5407C57.2869 40.4252 57.1572 40.3476 57.0148 40.3205V40.0521H56.7386V40.3293C56.6286 40.3479 56.529 40.4093 56.4589 40.5017C56.3889 40.5941 56.3534 40.711 56.3593 40.8297C56.3593 41.2898 56.9945 41.3213 56.9945 41.5297C56.9945 41.628 56.9457 41.6762 56.8224 41.6762C56.697 41.6691 56.5774 41.6176 56.4827 41.5297L56.2985 41.8344C56.4238 41.9438 56.576 42.0121 56.7368 42.0311V42.2945H57.0129V42.0124C57.1243 41.9906 57.2245 41.9263 57.2947 41.8316C57.365 41.7368 57.4007 41.618 57.395 41.4972Z" stroke="#EB996E" stroke-width="0.376003" stroke-linecap="round" stroke-linejoin="round"/>
</g>
<g opacity="0.3">
<path d="M25.9475 16.4889C26.8099 16.4889 27.5089 15.7424 27.5089 14.8215C27.5089 13.9007 26.8099 13.1542 25.9475 13.1542C25.0852 13.1542 24.3861 13.9007 24.3861 14.8215C24.3861 15.7424 25.0852 16.4889 25.9475 16.4889Z" stroke="#EB996E" stroke-width="0.376003" stroke-linecap="round" stroke-linejoin="round"/>
<path d="M27.1993 15.304C27.4496 14.5658 27.092 13.7507 26.4007 13.4835C25.7094 13.2162 24.9461 13.598 24.6958 14.3363C24.4455 15.0745 24.8031 15.8896 25.4944 16.1568C26.1858 16.4241 26.9491 16.0423 27.1993 15.304Z" stroke="#EB996E" stroke-width="0.376003" stroke-linecap="round" stroke-linejoin="round"/>
<path d="M26.5147 15.1086C26.5147 14.6298 25.8794 14.617 25.8794 14.4204C25.8794 14.3152 25.931 14.2838 26.0368 14.2838C26.1344 14.2888 26.2262 14.3343 26.2928 14.4106L26.5018 14.153C26.4056 14.0375 26.2759 13.96 26.1335 13.9328V13.6634H25.8573V13.9407C25.7472 13.9594 25.6476 14.0211 25.5776 14.1136C25.5075 14.2062 25.4721 14.3232 25.478 14.442C25.478 14.9021 26.1132 14.9336 26.1132 15.141C26.1132 15.2393 26.0645 15.2885 25.9411 15.2885C25.8157 15.2809 25.6962 15.229 25.6014 15.141L25.4172 15.4458C25.5425 15.5551 25.6947 15.6234 25.8555 15.6424V15.9069H26.1317V15.6237C26.2432 15.6022 26.3436 15.538 26.414 15.4432C26.4845 15.3484 26.5203 15.2295 26.5147 15.1086V15.1086Z" stroke="#EB996E" stroke-width="0.376003" stroke-linecap="round" stroke-linejoin="round"/>
</g>
<g opacity="0.3">
<path d="M24.9801 38.6591C26.8598 38.439 28.2164 36.6333 28.0102 34.6261C27.804 32.6189 26.1131 31.1702 24.2334 31.3904C22.3537 31.6105 20.9971 33.4162 21.2033 35.4234C21.4095 37.4306 23.1004 38.8793 24.9801 38.6591Z" stroke="#EB996E" stroke-width="0.376003" stroke-linecap="round" stroke-linejoin="round"/>
<path d="M27.2258 36.401C27.9389 34.8575 27.3453 32.9888 25.8998 32.2273C24.4543 31.4658 22.7044 32.0997 21.9913 33.6433C21.2781 35.1868 21.8718 37.0554 23.3173 37.817C24.7627 38.5785 26.5126 37.9445 27.2258 36.401Z" stroke="#EB996E" stroke-width="0.376003" stroke-linecap="round" stroke-linejoin="round"/>
<path d="M25.8508 35.6497C25.8508 34.6007 24.4588 34.5781 24.4588 34.1397C24.4588 33.9096 24.572 33.8398 24.804 33.8398C25.0038 33.8398 25.1723 33.9322 25.3656 34.117L25.826 33.5518C25.6128 33.2979 25.3258 33.1282 25.0112 33.07V32.4802H24.4045V33.0877C23.8852 33.2077 23.5759 33.6039 23.5759 34.1859C23.5759 35.1945 24.9679 35.2575 24.9679 35.7185C24.9679 35.9437 24.8602 36.041 24.5905 36.041C24.364 36.041 24.1366 35.9486 23.8457 35.7185L23.4461 36.387C23.7199 36.6284 24.0535 36.7793 24.4063 36.8216V37.4006H25.0112V36.7813C25.5728 36.6387 25.8508 36.2042 25.8508 35.6497Z" stroke="#EB996E" stroke-width="0.376003" stroke-linecap="round" stroke-linejoin="round"/>
</g>
<path d="M22.6461 17.4376C22.6682 17.9065 22.2981 18.8818 22.2981 18.8828C22.2981 18.8838 21.7696 18.4276 21.7401 18.3912C21.394 18.0039 20.9373 17.0394 21.2043 16.5125C21.251 16.4262 21.3141 16.3514 21.3896 16.293C21.4651 16.2345 21.5513 16.1936 21.6426 16.173C21.7338 16.1524 21.8281 16.1526 21.9193 16.1735C22.0105 16.1944 22.0966 16.2355 22.1719 16.2942C22.4988 16.5351 22.6267 17.0385 22.6461 17.4376Z" fill="#BC9434"/>
<path d="M31.6058 26.7536L31.6629 26.7899L31.6703 27.2136L31.4327 27.0573C31.2035 26.905 30.9614 26.7378 30.7137 26.5658C30.5223 26.7884 30.3188 26.9989 30.1042 27.196C30.2939 27.601 30.374 28.474 30.3804 28.5861C30.6465 28.5792 30.9052 28.5694 31.1492 28.5566C31.3167 28.5477 31.4778 28.5379 31.6334 28.5271L31.5027 28.8967C31.3913 28.8967 31.279 28.9056 31.1621 28.9085C30.8923 28.9164 30.6041 28.9203 30.3077 28.9203C30.2911 29.0334 30.1493 29.9624 29.9219 30.3311C29.7157 30.6644 29.3696 31.0281 28.97 31.0547C28.8778 31.064 28.7848 31.0526 28.6969 31.0212C28.6091 30.9899 28.5284 30.9392 28.4599 30.8726C28.3915 30.8059 28.3369 30.7247 28.2997 30.6341C28.2624 30.5436 28.2433 30.4457 28.2436 30.3468C28.2648 29.7471 29.1173 29.1671 29.5997 29.0196C29.6283 29.0118 29.9468 28.9557 30.1475 28.9213C30.0269 28.9213 29.9091 28.9213 29.7848 28.9213C29.538 28.9213 29.2922 28.9075 29.0271 28.8977L28.6404 28.8682C28.5115 28.8613 28.3753 28.8368 28.2418 28.821C27.9315 28.7788 27.6203 28.7227 27.3073 28.6529C27.3073 28.883 27.2834 29.7009 27.1232 30.0657C26.963 30.4304 26.673 30.8453 26.2854 30.9357C26.1949 30.9601 26.1005 30.9639 26.0085 30.9468C25.9165 30.9298 25.829 30.8922 25.7515 30.8365C25.674 30.7809 25.6084 30.7084 25.5589 30.6239C25.5094 30.5393 25.4771 30.4446 25.4642 30.3458C25.3997 29.7501 26.1602 29.0363 26.6168 28.8151C26.6444 28.8014 26.9851 28.6824 27.1793 28.6185C26.9952 28.5762 26.8037 28.5359 26.615 28.4868C26.07 28.3452 25.5231 28.184 24.9762 28.0257L24.4763 27.889C24.4763 27.9716 24.4717 28.9449 24.2922 29.3529C24.1357 29.7157 23.8411 30.1325 23.4544 30.2229C23.3639 30.2475 23.2695 30.2515 23.1774 30.2344C23.0854 30.2174 22.9977 30.1798 22.9202 30.1242C22.8427 30.0685 22.7771 29.996 22.7276 29.9113C22.6781 29.8267 22.646 29.7319 22.6332 29.6331C22.5687 29.0373 23.3292 28.3236 23.7849 28.1024C23.8199 28.0857 24.3152 27.9146 24.4432 27.8782C24.0749 27.774 23.7067 27.6747 23.3384 27.5931C22.8432 27.4797 22.3416 27.4006 21.8368 27.3562C21.8368 27.3945 21.8368 28.4101 21.6527 28.8309C21.4953 29.1936 21.2016 29.6095 20.8149 29.6999C20.7243 29.7247 20.6298 29.7287 20.5377 29.7118C20.4455 29.6948 20.3577 29.6573 20.2801 29.6016C20.2025 29.5459 20.1368 29.4733 20.0873 29.3886C20.0377 29.3039 20.0055 29.209 19.9928 29.1101C19.9292 28.5153 20.6888 27.8006 21.1454 27.5794C21.1813 27.5627 21.7144 27.3827 21.8129 27.3523C21.7834 27.3523 21.754 27.3444 21.7208 27.3424C21.2136 27.3131 20.7049 27.3318 20.2008 27.3985C19.9246 27.4319 19.6576 27.4801 19.4008 27.5332C19.4192 27.7229 19.4928 28.588 19.3695 28.9842C19.2507 29.3637 19.0012 29.811 18.6256 29.9467C18.5391 29.9798 18.4472 29.9934 18.3556 29.9866C18.2639 29.9798 18.1746 29.9527 18.0933 29.9072C18.0119 29.8616 17.9403 29.7985 17.883 29.7219C17.8257 29.6453 17.7838 29.5568 17.7602 29.462C17.635 28.8722 18.3126 28.0788 18.748 27.8055C18.7711 27.7907 19.0242 27.6678 19.2084 27.5803C19.0924 27.6069 18.9736 27.6315 18.8631 27.658C18.4497 27.7563 18.076 27.8782 17.7464 27.9874C17.5622 28.0513 17.3919 28.1122 17.2354 28.1712C17.1627 28.3678 16.8589 29.1543 16.5836 29.4365C16.3083 29.7186 15.8996 29.989 15.5083 29.928C15.117 29.8671 14.838 29.4817 14.9402 29.0639C15.0811 28.4838 16.0312 28.1102 16.532 28.0808C16.5753 28.0808 17.2557 28.1201 17.252 28.1299V28.1417C17.4021 28.0817 17.5622 28.0188 17.7399 27.9549C18.0677 27.8379 18.4396 27.7091 18.853 27.598C19.2971 27.4715 19.7477 27.373 20.2027 27.3031C20.7116 27.2238 21.2261 27.1929 21.7401 27.2107H21.7586C21.603 27.1517 21.1758 26.9708 21.1445 26.9531C20.7026 26.7005 19.9872 25.9366 20.0867 25.3467C20.1057 25.2493 20.1438 25.1572 20.1985 25.0765C20.2531 24.9958 20.3231 24.9283 20.4037 24.8784C20.4844 24.8285 20.5741 24.7973 20.6668 24.7869C20.7595 24.7764 20.8533 24.787 20.9419 24.8178C21.3231 24.9348 21.5864 25.3693 21.7254 25.7429C21.8773 26.1637 21.823 27.1389 21.8175 27.2176C22.3402 27.2498 22.8602 27.3191 23.3743 27.425C23.6735 27.485 23.9746 27.5558 24.2747 27.6305C24.1421 27.5744 24.0243 27.5233 24.0086 27.5145C23.5658 27.2618 22.8514 26.4979 22.9508 25.9081C22.9699 25.8106 23.008 25.7185 23.0626 25.6378C23.1172 25.5571 23.1872 25.4895 23.2678 25.4395C23.3485 25.3896 23.4381 25.3583 23.5308 25.3477C23.6236 25.3371 23.7174 25.3475 23.8061 25.3782C24.1872 25.4952 24.4551 25.9307 24.5896 26.3043C24.724 26.6779 24.6954 27.5155 24.6816 27.7357C24.7967 27.7652 24.9118 27.7937 25.0259 27.8242C25.5783 27.9697 26.1307 28.1191 26.6684 28.2449C26.859 28.2902 27.0495 28.3275 27.2392 28.3649C27.1213 28.3147 27.0228 28.2725 27.009 28.2666C26.5662 28.0149 25.8508 27.25 25.9512 26.6602C25.9703 26.5627 26.0084 26.4706 26.063 26.3899C26.1176 26.3092 26.1876 26.2417 26.2683 26.1918C26.349 26.1419 26.4386 26.1108 26.5313 26.1003C26.6241 26.0899 26.7178 26.1004 26.8065 26.1312C27.1867 26.2482 27.4555 26.6838 27.5899 27.0563C27.7244 27.4289 27.6986 28.1869 27.682 28.4484C27.8772 28.4809 28.0733 28.5133 28.2639 28.5349C28.3946 28.5467 28.5189 28.5684 28.6505 28.5723L29.0381 28.593C29.2849 28.593 29.539 28.6008 29.7802 28.5979C29.9468 28.5979 30.107 28.593 30.2672 28.589C30.0766 28.5467 29.7047 28.4553 29.6743 28.4435C29.2642 28.2707 28.9023 27.9888 28.6229 27.6246C28.5766 27.6074 28.5319 27.5857 28.4894 27.5597C28.4069 27.5132 28.3346 27.4486 28.277 27.3702C28.2195 27.2917 28.1781 27.2012 28.1555 27.1046C28.1329 27.0079 28.1296 26.9073 28.1459 26.8092C28.1622 26.7111 28.1977 26.6178 28.25 26.5353C28.5769 26.0487 29.5887 26.0644 30.0656 26.2286C30.0941 26.2384 30.3887 26.379 30.5728 26.4714C30.4725 26.3996 30.374 26.3308 30.2709 26.2551C30.0665 26.1076 29.8667 25.9543 29.6513 25.7901L29.3502 25.5296C29.2462 25.448 29.1458 25.3477 29.0418 25.2553C28.8061 25.038 28.576 24.804 28.3495 24.5671C28.2289 24.7578 27.7888 25.4283 27.4684 25.6397C27.148 25.8511 26.6905 26.0241 26.3213 25.8717C25.9521 25.7193 25.7551 25.2818 25.9383 24.8984C26.1924 24.3636 27.1959 24.2161 27.6875 24.2997C27.7188 24.3056 28.0668 24.4088 28.2574 24.4688C28.123 24.3233 27.9877 24.1788 27.8551 24.0264C27.4739 23.5879 27.1002 23.1308 26.7264 22.6766C26.6113 22.538 26.4953 22.4003 26.3802 22.2627C26.3379 22.3315 25.8278 23.1406 25.4725 23.3776C25.1548 23.5879 24.6945 23.761 24.3253 23.6086C24.2373 23.5759 24.1566 23.5238 24.0886 23.4557C24.0206 23.3875 23.9668 23.3049 23.9307 23.2131C23.8946 23.1213 23.877 23.0224 23.879 22.9229C23.881 22.8233 23.9026 22.7254 23.9423 22.6353C24.1974 22.1015 25.1999 21.953 25.6916 22.0376C25.7293 22.0445 26.2311 22.1929 26.3563 22.2342C26.1022 21.9304 25.8462 21.6306 25.5829 21.3494C25.2285 20.9634 24.8512 20.6022 24.4533 20.268C24.434 20.3004 23.9083 21.1469 23.5419 21.3897C23.2233 21.6001 22.763 21.7741 22.3938 21.6217C22.3057 21.5889 22.225 21.5367 22.1571 21.4685C22.0891 21.4002 22.0353 21.3175 21.9993 21.2256C21.9633 21.1337 21.9457 21.0347 21.9479 20.9351C21.95 20.8355 21.9718 20.7375 22.0117 20.6475C22.2658 20.1136 23.2684 19.9662 23.761 20.0497C23.8006 20.0566 24.3401 20.2178 24.4358 20.2542C24.4128 20.2345 24.3907 20.2119 24.3668 20.1933C23.9588 19.8703 23.5251 19.5864 23.0705 19.3448C22.821 19.2092 22.5752 19.0932 22.334 18.986C22.2511 19.1551 21.8644 19.92 21.5579 20.1775C21.2513 20.4351 20.8213 20.6504 20.4402 20.5423C20.3493 20.52 20.2638 20.4775 20.1893 20.4177C20.1148 20.3578 20.0529 20.2819 20.0077 20.1948C19.9625 20.1078 19.9349 20.0115 19.9268 19.9123C19.9186 19.8132 19.9301 19.7132 19.9605 19.6191C20.1576 19.0587 21.139 18.7943 21.6398 18.8199C21.6674 18.8199 21.9427 18.868 22.1425 18.9054C22.0329 18.8592 21.9206 18.8071 21.8147 18.7668C21.417 18.6075 21.0441 18.4876 20.7099 18.3834C20.5258 18.3263 20.349 18.2791 20.1879 18.2359C20.0259 18.3558 19.3676 18.8316 18.9911 18.9064C18.6145 18.9811 18.1349 18.9654 17.8421 18.6812C17.5494 18.3971 17.5135 17.9144 17.8145 17.6264C18.2316 17.2252 19.2166 17.474 19.6503 17.7424C19.6871 17.766 20.234 18.2015 20.2257 18.2084L20.2156 18.2152C20.3711 18.2536 20.5378 18.2959 20.7191 18.346C21.0533 18.4443 21.429 18.5534 21.8313 18.7048C22.2664 18.8622 22.6924 19.0467 23.1073 19.2573C23.5726 19.4914 24.0178 19.7687 24.4376 20.0861L24.4515 20.0989C24.3529 19.9583 24.0906 19.5552 24.0731 19.5218C23.8346 19.0509 23.633 17.9921 24.0215 17.5556C24.0878 17.4856 24.1671 17.4314 24.2543 17.3964C24.3415 17.3613 24.4347 17.3463 24.5277 17.3522C24.6207 17.3581 24.7115 17.3849 24.7941 17.4308C24.8768 17.4767 24.9495 17.5406 25.0075 17.6185C25.2653 17.94 25.2635 18.461 25.1834 18.8513C25.0913 19.2917 24.5389 20.0733 24.4993 20.1353C24.9229 20.4708 25.3249 20.8364 25.7026 21.2295C25.9217 21.4566 26.1362 21.6915 26.3471 21.9304C26.2661 21.8065 26.1933 21.6945 26.185 21.6778C25.9466 21.2068 25.745 20.1471 26.1335 19.7115C26.1998 19.6416 26.2791 19.5874 26.3663 19.5523C26.4535 19.5173 26.5466 19.5022 26.6396 19.5082C26.7326 19.5141 26.8234 19.5409 26.9061 19.5868C26.9888 19.6326 27.0615 19.6966 27.1195 19.7745C27.3773 20.0959 27.3754 20.617 27.2953 21.0073C27.2152 21.3976 26.7577 22.0798 26.6343 22.2578C26.7153 22.3502 26.7963 22.4416 26.8764 22.534C27.2604 22.9804 27.6415 23.4267 28.0282 23.8524C28.1644 24.0028 28.3044 24.1473 28.4425 24.2889C28.3707 24.1778 28.3108 24.0844 28.3025 24.0687C28.0641 23.5978 27.8625 22.539 28.251 22.1025C28.5272 21.7908 28.9875 21.8508 29.237 22.1654C29.4865 22.48 29.4929 23.0089 29.4128 23.3992C29.3327 23.7895 28.9194 24.4049 28.7739 24.6163C28.9203 24.7588 29.0667 24.9014 29.2149 25.0321C29.3171 25.1186 29.411 25.2101 29.5187 25.2907L29.8308 25.5355C30.0352 25.6839 30.2442 25.8383 30.4467 25.9769C30.5867 26.0752 30.7229 26.1657 30.8582 26.2571C30.7211 26.1096 30.4578 25.8137 30.4384 25.7862C30.1355 25.3595 29.7866 24.3459 30.1088 23.8544C30.1644 23.7745 30.2352 23.708 30.3164 23.6592C30.3977 23.6103 30.4876 23.5803 30.5804 23.5711C30.6732 23.5618 30.7668 23.5735 30.8551 23.6053C30.9434 23.6372 31.0245 23.6886 31.093 23.756C31.3922 24.0323 31.4613 24.5475 31.441 24.9466C31.4143 25.386 31.0028 26.2158 30.9503 26.3229C31.1749 26.4763 31.395 26.6208 31.6058 26.7536Z" fill="#BC9434"/>
<path d="M19.3225 27.4712C19.3225 27.482 18.6468 27.4024 18.6044 27.3926C18.1156 27.2736 17.2363 26.7378 17.1866 26.1411C17.1811 26.0416 17.1952 25.9421 17.2281 25.8489C17.2609 25.7557 17.3118 25.6709 17.3774 25.6C17.4429 25.5292 17.5217 25.4739 17.6086 25.4377C17.6955 25.4015 17.7886 25.3852 17.8817 25.39C18.2776 25.3949 18.644 25.739 18.8659 26.0614C19.1264 26.4389 19.3225 27.4702 19.3225 27.4712Z" fill="#BC9434"/>
<path d="M68.2292 17.4376C68.2071 17.9065 68.5763 18.8818 68.5763 18.8828C68.5763 18.8838 69.1047 18.4276 69.1351 18.3912C69.4813 18.0039 69.9379 17.0394 69.6709 16.5125C69.6243 16.4262 69.5612 16.3514 69.4857 16.293C69.4101 16.2345 69.324 16.1936 69.2327 16.173C69.1414 16.1524 69.0471 16.1526 68.9559 16.1735C68.8647 16.1944 68.7787 16.2355 68.7033 16.2942C68.3756 16.5351 68.2476 17.0385 68.2292 17.4376Z" fill="#BC9434"/>
<path d="M59.2695 26.7535L59.2115 26.7899L59.205 27.2136L59.4426 27.0573C59.6718 26.9049 59.9139 26.7378 60.1607 26.5658C60.3521 26.7884 60.5556 26.9988 60.7701 27.1959C60.5805 27.601 60.5013 28.474 60.4939 28.5861C60.2279 28.5792 59.9701 28.5693 59.7261 28.5566C59.5576 28.5477 59.3965 28.5379 59.2419 28.5271L59.3735 28.8997C59.484 28.8997 59.5963 28.9085 59.7132 28.9115C59.983 28.9193 60.2721 28.9233 60.5685 28.9233C60.5851 29.0363 60.7269 29.9654 60.9543 30.334C61.1605 30.6673 61.5066 31.0311 61.9053 31.0576C61.9981 31.0674 62.0918 31.0562 62.1803 31.0248C62.2688 30.9933 62.3501 30.9423 62.4189 30.8751C62.4877 30.8078 62.5424 30.7258 62.5796 30.6345C62.6167 30.5431 62.6354 30.4444 62.6344 30.3448C62.6133 29.7451 61.7607 29.1651 61.2783 29.0176C61.2498 29.0098 60.9312 28.9537 60.7259 28.9193C60.8475 28.9193 60.9644 28.9193 61.0942 28.9193C61.3409 28.9193 61.5867 28.9056 61.851 28.8957L62.2376 28.8662C62.3675 28.8594 62.5028 28.8348 62.6372 28.8191C62.9465 28.7768 63.2586 28.7207 63.5717 28.6509C63.5717 28.881 63.5947 29.6989 63.7558 30.0637C63.9169 30.4284 64.2069 30.8433 64.5936 30.9337C64.6842 30.9582 64.7786 30.962 64.8706 30.9449C64.9626 30.9278 65.0503 30.8902 65.1278 30.8346C65.2054 30.7789 65.2711 30.7065 65.3207 30.6219C65.3703 30.5374 65.4027 30.4426 65.4157 30.3439C65.4792 29.7481 64.7197 29.0344 64.2631 28.8132C64.2345 28.7994 63.8948 28.6804 63.7006 28.6165C63.8847 28.5743 64.0753 28.534 64.2649 28.4848C64.809 28.3432 65.3568 28.182 65.9037 28.0237L66.3953 27.889C66.3953 27.9716 66.3999 28.9449 66.5794 29.3529C66.7359 29.7157 67.0296 30.1325 67.4163 30.2229C67.803 30.3134 68.1924 30.0647 68.2384 29.6331C68.302 29.0373 67.5424 28.3236 67.0858 28.1024C67.0517 28.0857 66.5564 27.9146 66.4284 27.8782C66.7967 27.774 67.165 27.6747 67.5332 27.5931C68.0281 27.4797 68.5294 27.4005 69.0339 27.3562C69.0339 27.3945 69.0339 28.4101 69.218 28.8309C69.3745 29.1936 69.6691 29.6095 70.0558 29.6999C70.1463 29.7245 70.2407 29.7284 70.3327 29.7114C70.4248 29.6944 70.5124 29.6568 70.59 29.6011C70.6675 29.5455 70.7331 29.4729 70.7826 29.3883C70.832 29.3037 70.8642 29.2089 70.877 29.1101C70.9415 28.5153 70.1819 27.8006 69.7253 27.5794C69.6894 27.5626 69.1563 27.3827 69.0569 27.3523C69.0863 27.3523 69.1167 27.3444 69.1489 27.3424C69.6559 27.3131 70.1642 27.3318 70.668 27.3985C70.9442 27.4319 71.2121 27.4801 71.4681 27.5331C71.4506 27.7229 71.376 28.588 71.5003 28.9842C71.6191 29.3637 71.8685 29.811 72.2433 29.9467C72.3301 29.9809 72.4228 29.9954 72.5152 29.9892C72.6077 29.9829 72.6979 29.9561 72.78 29.9105C72.8622 29.8649 72.9345 29.8014 72.9924 29.7242C73.0503 29.6469 73.0924 29.5576 73.116 29.462C73.2412 28.8721 72.5636 28.0788 72.1282 27.8055C72.1052 27.7907 71.852 27.6678 71.6678 27.5803C71.7829 27.6069 71.9026 27.6315 72.0131 27.658C72.4265 27.7563 72.7993 27.8782 73.1289 27.9873C73.313 28.0512 73.4843 28.1122 73.6408 28.1712C73.7135 28.3678 74.0173 29.1543 74.2926 29.4364C74.5679 29.7186 74.9757 29.989 75.367 29.928C75.4596 29.916 75.5488 29.8834 75.6289 29.8323C75.7089 29.7812 75.778 29.7126 75.8316 29.6312C75.8853 29.5497 75.9223 29.4571 75.9403 29.3594C75.9582 29.2616 75.9568 29.1609 75.936 29.0639C75.7942 28.4838 74.8441 28.1102 74.3442 28.0807C74.3009 28.0807 73.6205 28.1201 73.6242 28.1299V28.1417C73.4751 28.0817 73.314 28.0188 73.1372 27.9549C72.8085 27.8379 72.4375 27.7091 72.0241 27.598C71.5801 27.4716 71.1294 27.3731 70.6745 27.3031C70.1655 27.2238 69.651 27.1929 69.137 27.2107H69.1186C69.2732 27.1517 69.7013 26.9708 69.7326 26.9531C70.1746 26.7005 70.8899 25.9366 70.7895 25.3467C70.7705 25.2492 70.7324 25.1572 70.6777 25.0765C70.6231 24.9958 70.5532 24.9283 70.4725 24.8784C70.3918 24.8285 70.3021 24.7973 70.2094 24.7869C70.1167 24.7764 70.0229 24.787 69.9343 24.8178C69.554 24.9348 69.2852 25.3693 69.1508 25.7429C68.9989 26.1637 69.0587 27.1389 69.0587 27.2176C68.5355 27.2493 68.0147 27.3183 67.5001 27.424C67.1999 27.484 66.8998 27.5548 66.5997 27.6295C66.7322 27.5735 66.8501 27.5223 66.8657 27.5135C67.3077 27.2608 68.023 26.497 67.9236 25.9071C67.9045 25.8096 67.8664 25.7175 67.8117 25.6368C67.7571 25.5561 67.6872 25.4885 67.6065 25.4386C67.5259 25.3886 67.4363 25.3573 67.3435 25.3467C67.2508 25.3361 67.157 25.3465 67.0683 25.3772C66.6871 25.4942 66.4183 25.9297 66.2839 26.3033C66.1495 26.6769 66.1789 27.5145 66.1918 27.7347L65.8466 27.8232C65.2942 27.9687 64.7473 28.1181 64.2051 28.2439C64.0136 28.2892 63.8239 28.3265 63.6343 28.3639C63.7512 28.3137 63.8497 28.2715 63.8644 28.2656C64.3063 28.0139 65.0217 27.249 64.9223 26.6592C64.9032 26.5617 64.8651 26.4696 64.8104 26.3889C64.7558 26.3082 64.6859 26.2407 64.6052 26.1908C64.5245 26.1409 64.4349 26.1098 64.3421 26.0993C64.2494 26.0889 64.1556 26.0994 64.067 26.1302C63.6858 26.2472 63.4179 26.6828 63.2835 27.0554C63.1491 27.428 63.173 28.184 63.1868 28.4445C62.9917 28.4769 62.7956 28.5094 62.605 28.531C62.4743 28.5428 62.349 28.5644 62.2174 28.5684L61.8307 28.589C61.584 28.589 61.329 28.5969 61.0887 28.5939C60.9211 28.5939 60.7618 28.589 60.6017 28.5851C60.7922 28.5428 61.1642 28.4514 61.1936 28.4396C61.6039 28.2671 61.9659 27.9851 62.245 27.6206C62.2916 27.6035 62.3366 27.5818 62.3794 27.5558C62.4618 27.5091 62.5341 27.4445 62.5915 27.366C62.649 27.2876 62.6903 27.1971 62.7129 27.1005C62.7355 27.0039 62.7388 26.9033 62.7226 26.8052C62.7064 26.7072 62.671 26.6139 62.6188 26.5314C62.292 26.0447 61.2793 26.0605 60.8024 26.2246C60.7747 26.2345 60.4801 26.375 60.2951 26.4675C60.3963 26.3957 60.4949 26.3269 60.5971 26.2512C60.8014 26.1037 61.0012 25.9503 61.2166 25.7862L61.5241 25.5335C61.6282 25.4519 61.7285 25.3516 61.8326 25.2592C62.0692 25.0419 62.2984 24.808 62.5249 24.571C62.6464 24.7618 63.0865 25.4322 63.406 25.6436C63.7254 25.855 64.1857 26.0211 64.554 25.8727C64.9223 25.7242 65.1193 25.2828 64.9361 24.8994C64.682 24.3646 63.6794 24.2171 63.1868 24.3007C63.1565 24.3066 62.8075 24.4098 62.617 24.4698C62.7523 24.3243 62.8876 24.1798 63.0193 24.0274C63.4013 23.5889 63.7742 23.1318 64.1489 22.6776C64.2631 22.5389 64.3791 22.4013 64.4942 22.2637C64.5374 22.3325 65.0465 23.1416 65.4019 23.3785C65.7205 23.5889 66.1808 23.7619 66.55 23.6096C66.638 23.5769 66.7187 23.5248 66.7867 23.4566C66.8546 23.3885 66.9084 23.3058 66.9444 23.214C66.9805 23.1222 66.998 23.0233 66.9959 22.9237C66.9937 22.8242 66.972 22.7262 66.932 22.6363C66.6779 22.1024 65.6753 21.954 65.1828 22.0385C65.146 22.0454 64.6442 22.1939 64.5181 22.2352C64.7722 21.9314 65.0291 21.6315 65.2924 21.3504C65.6462 20.9641 66.0233 20.6029 66.4211 20.2689C66.4413 20.3014 66.967 21.1478 67.3334 21.3907C67.652 21.6011 68.1114 21.7751 68.4815 21.6227C68.5696 21.5899 68.6503 21.5377 68.7182 21.4695C68.7862 21.4012 68.8399 21.3184 68.876 21.2265C68.912 21.1346 68.9295 21.0357 68.9274 20.9361C68.9253 20.8365 68.9035 20.7385 68.8636 20.6484C68.6095 20.1146 67.6069 19.9671 67.1143 20.0507C67.0757 20.0576 66.5362 20.2188 66.4404 20.2552C66.4634 20.2355 66.4855 20.2129 66.5085 20.1942C66.9168 19.8713 67.3508 19.5874 67.8057 19.3458C68.0552 19.2101 68.301 19.0941 68.5422 18.987C68.6251 19.1561 69.0109 19.9209 69.3184 20.1785C69.6258 20.4361 70.0549 20.6514 70.4351 20.5432C70.5261 20.5211 70.6116 20.4787 70.6862 20.4189C70.7608 20.3591 70.8228 20.2832 70.8682 20.1961C70.9135 20.109 70.9412 20.0127 70.9493 19.9135C70.9575 19.8143 70.9461 19.7143 70.9157 19.6201C70.7177 19.0597 69.7363 18.7953 69.2355 18.8208C69.2088 18.8208 68.9335 18.869 68.7337 18.9064C68.8433 18.8602 68.9556 18.808 69.0615 18.7677C69.4583 18.6085 69.8312 18.4885 70.1663 18.3843C70.3504 18.3273 70.5272 18.2801 70.6874 18.2369C70.8494 18.3568 71.5077 18.8326 71.8842 18.9073C72.2607 18.9821 72.7395 18.9663 73.0332 18.6822C73.3269 18.3981 73.3618 17.9154 73.0608 17.6273C72.6428 17.2262 71.6577 17.4749 71.225 17.7433C71.1873 17.7669 70.6413 18.2024 70.6496 18.2093L70.6597 18.2162C70.5032 18.2546 70.3366 18.2968 70.1561 18.347C69.8219 18.4453 69.4454 18.5544 69.0431 18.7058C68.6083 18.8632 68.1825 19.0477 67.768 19.2583C67.3024 19.4919 66.8572 19.7693 66.4376 20.0871L66.4229 20.0999C66.5214 19.9593 66.7847 19.5562 66.8013 19.5228C67.0397 19.0519 67.2414 17.993 66.8538 17.5565C66.7874 17.4866 66.708 17.4323 66.6207 17.3973C66.5335 17.3622 66.4403 17.3472 66.3472 17.3531C66.2541 17.3591 66.1632 17.3858 66.0805 17.4317C65.9977 17.4776 65.9249 17.5416 65.8668 17.6195C65.61 17.9409 65.6109 18.462 65.6919 18.8523C65.784 19.2927 66.3364 20.0743 66.376 20.1362C65.9566 20.471 65.5587 20.8353 65.1846 21.2265C64.9655 21.4536 64.7519 21.6886 64.5402 21.9275C64.6212 21.8036 64.693 21.6915 64.7022 21.6748C64.9407 21.2039 65.1414 20.1441 64.7538 19.7086C64.6874 19.6386 64.608 19.5844 64.5207 19.5493C64.4335 19.5143 64.3403 19.4992 64.2472 19.5052C64.1541 19.5111 64.0632 19.5379 63.9805 19.5838C63.8977 19.6296 63.8249 19.6936 63.7668 19.7715C63.51 20.093 63.5109 20.614 63.5919 21.0043C63.6729 21.3946 64.1296 22.0769 64.252 22.2548L64.0016 22.537C63.6177 22.9833 63.2356 23.4296 62.849 23.8553C62.7136 24.0057 62.5728 24.1503 62.4347 24.2918C62.5074 24.1807 62.5672 24.0873 62.5746 24.0716C62.8131 23.6007 63.0147 22.5419 62.6271 22.1054C62.5607 22.0354 62.4813 21.9812 62.394 21.9461C62.3068 21.9111 62.2136 21.896 62.1205 21.902C62.0274 21.9079 61.9365 21.9347 61.8538 21.9806C61.771 22.0265 61.6982 22.0904 61.6401 22.1683C61.3833 22.4898 61.3842 23.0118 61.4652 23.4021C61.5462 23.7924 61.9587 24.4078 62.1032 24.6192C61.9568 24.7618 61.8114 24.9043 61.6632 25.0351C61.56 25.1216 61.4671 25.213 61.3593 25.2936L61.0463 25.5384C60.8429 25.6869 60.633 25.8412 60.4304 25.9798C60.2905 26.0781 60.1542 26.1686 60.0198 26.26C60.157 26.1126 60.4203 25.8166 60.4396 25.7891C60.7416 25.3624 61.0914 24.3489 60.7692 23.8573C60.7136 23.7774 60.6429 23.7109 60.5616 23.6621C60.4804 23.6133 60.3904 23.5833 60.2976 23.574C60.2048 23.5647 60.1112 23.5764 60.0229 23.6083C59.9346 23.6402 59.8536 23.6915 59.785 23.759C59.4849 24.0352 59.4168 24.5504 59.4361 24.9495C59.4637 25.389 59.8753 26.2187 59.9268 26.3259C59.7003 26.4763 59.4794 26.6208 59.2695 26.7535Z" fill="#BC9434"/>
<path d="M71.5509 27.4712C71.5509 27.482 72.2266 27.4024 72.269 27.3925C72.7569 27.2736 73.6361 26.7378 73.6859 26.141C73.7218 25.7114 73.3793 25.385 72.9917 25.3899C72.6041 25.3949 72.2294 25.739 72.0075 26.0614C71.7488 26.4389 71.5509 27.4702 71.5509 27.4712Z" fill="#BC9434"/>
<path d="M33.1219 9.17871L31.5547 10.489L33.4566 13.0829L35.0238 11.7726L33.1219 9.17871Z" fill="#BC9434" stroke="#BC9434" stroke-width="0.376003" stroke-linejoin="round"/>
<path d="M32.9965 7.80045L30.3318 10.0284L31.6814 11.8691L34.3461 9.64119L32.9965 7.80045Z" fill="#BC9434" stroke="#BC9434" stroke-width="0.376003" stroke-linejoin="round"/>
<path d="M30.907 9.63464L31.8967 10.9845" stroke="#BC9434" stroke-width="0.376003" stroke-linejoin="round"/>
<path d="M31.8092 8.88062L32.7989 10.2294" stroke="#BC9434" stroke-width="0.376003" stroke-linejoin="round"/>
<path d="M31.5634 9.60419L32.5531 10.953" stroke="#BC9434" stroke-width="0.376003" stroke-linejoin="round"/>
<path d="M53.4542 11.7745L55.0214 13.0848L56.9233 10.4909L55.3561 9.18061L53.4542 11.7745Z" fill="#BC9434" stroke="#BC9434" stroke-width="0.376003" stroke-linejoin="round"/>
<path d="M54.1334 9.64072L56.7981 11.8687L58.1478 10.0279L55.4831 7.79999L54.1334 9.64072Z" fill="#BC9434" stroke="#BC9434" stroke-width="0.376003" stroke-linejoin="round"/>
<path d="M57.5736 9.63464L56.5839 10.9845" stroke="#BC9434" stroke-width="0.376003" stroke-linejoin="round"/>
<path d="M56.6714 8.88062L55.6817 10.2294" stroke="#BC9434" stroke-width="0.376003" stroke-linejoin="round"/>
<path d="M56.9172 9.60419L55.9275 10.953" stroke="#BC9434" stroke-width="0.376003" stroke-linejoin="round"/>
<path d="M45.734 4.62177H42.5063V8.07347H45.734V4.62177Z" fill="#BC9434" stroke="#BC9434" stroke-width="0.376003" stroke-linejoin="round"/>
<path d="M46.4559 2.64178H41.7845V6.09349H46.4559V2.64178Z" fill="#BC9434" stroke="#BC9434" stroke-width="0.376003" stroke-linejoin="round"/>
<path d="M42.2043 2.63V5.50659" stroke="#BC9434" stroke-width="0.376003" stroke-linejoin="round"/>
<path d="M42.5891 5.63536V4.09384" stroke="#BC9434" stroke-width="0.376003" stroke-linejoin="round"/>
<path d="M42.9979 2.70767V4.89018" stroke="#BC9434" stroke-width="0.376003" stroke-linejoin="round"/>
<path d="M43.4066 3.76056V5.76414" stroke="#BC9434" stroke-width="0.376003" stroke-linejoin="round"/>
<path d="M44.0327 2.73325V4.99342" stroke="#BC9434" stroke-width="0.376003" stroke-linejoin="round"/>
<path d="M56.0595 38.25C62.6537 31.2084 62.6537 19.7916 56.0595 12.75C49.4652 5.70837 38.7738 5.70837 32.1796 12.75C25.5854 19.7916 25.5854 31.2084 32.1796 38.25C38.7738 45.2916 49.4652 45.2916 56.0595 38.25Z" fill="#BC9434" stroke="#BC9434" stroke-width="0.376003" stroke-linejoin="round"/>
<path d="M54.6598 36.7554C60.4811 30.5392 60.4811 20.4608 54.6598 14.2446C48.8386 8.02842 39.4005 8.02842 33.5793 14.2446C27.758 20.4608 27.758 30.5392 33.5793 36.7554C39.4005 42.9716 48.8386 42.9716 54.6598 36.7554Z" fill="white" stroke="#BC9434" stroke-width="0.376003" stroke-linejoin="round"/>
<path d="M53.8337 35.8732C59.1987 30.1443 59.1987 20.8557 53.8337 15.1268C48.4687 9.39778 39.7704 9.39778 34.4054 15.1268C29.0404 20.8557 29.0404 30.1443 34.4054 35.8732C39.7704 41.6022 48.4687 41.6022 53.8337 35.8732Z" fill="white" stroke="#BC9434" stroke-width="0.376003" stroke-linejoin="round"/>
<path d="M44.1202 10.8301V12.819" stroke="#BC9434" stroke-width="0.376003" stroke-linejoin="round"/>
<path d="M44.1202 38.1665V40.1553" stroke="#BC9434" stroke-width="0.376003" stroke-linejoin="round"/>
<path d="M57.8507 25.4932H55.9882" stroke="#BC9434" stroke-width="0.376003" stroke-linejoin="round"/>
<path d="M32.2512 25.4932H30.3887" stroke="#BC9434" stroke-width="0.376003" stroke-linejoin="round"/>
<path d="M53.8293 15.1253L52.5119 16.5312" stroke="#BC9434" stroke-width="0.376003" stroke-linejoin="round"/>
<path d="M35.7275 34.4542L34.411 35.8611" stroke="#BC9434" stroke-width="0.376003" stroke-linejoin="round"/>
<path d="M34.411 15.1253L35.7275 16.5312" stroke="#BC9434" stroke-width="0.376003" stroke-linejoin="round"/>
<path d="M52.5119 34.4542L53.8293 35.8611" stroke="#BC9434" stroke-width="0.376003" stroke-linejoin="round"/>
<path d="M47.5091 24.0962L47.7236 24.9702L33.6837 28.5861L33.6192 28.3236L47.5091 24.0962Z" fill="#BC9434" stroke="#BC9434" stroke-width="0.376003" stroke-linejoin="round"/>
<path d="M44.6587 25.5001C44.6587 25.3863 44.6271 25.2751 44.568 25.1806C44.5088 25.086 44.4247 25.0123 44.3263 24.9687C44.2278 24.9252 44.1196 24.9138 44.0151 24.936C43.9106 24.9582 43.8146 25.013 43.7393 25.0934C43.664 25.1738 43.6127 25.2763 43.5919 25.3879C43.5711 25.4994 43.5818 25.6151 43.6226 25.7202C43.6633 25.8253 43.7324 25.9151 43.8209 25.9783C43.9095 26.0415 44.0136 26.0752 44.1202 26.0752C44.1909 26.0752 44.2609 26.0603 44.3263 26.0314C44.3916 26.0025 44.451 25.9602 44.501 25.9067C44.551 25.8533 44.5907 25.7899 44.6177 25.7202C44.6448 25.6504 44.6587 25.5756 44.6587 25.5001V25.5001Z" fill="white" stroke="#BC9434" stroke-width="0.376003" stroke-linejoin="round"/>
<path d="M38.9471 36.4008L38.1047 35.8109C38.1047 35.8109 37.5827 36.3506 37.5523 36.4008C37.5219 36.4509 36.0875 36.6338 35.8031 36.6338C35.5186 36.6338 35.3151 36.562 35.281 36.7065C35.247 36.851 35.6852 37.1735 36.3251 37.3534C36.5773 37.4242 36.9456 37.5658 37.3083 37.7044L37.2512 37.8568C37.2512 37.8568 38.2105 38.2343 38.3625 38.25C38.414 38.2569 38.4637 38.1733 38.507 38.0613C38.6571 37.9167 38.9471 36.4008 38.9471 36.4008Z" fill="#BC9434" stroke="#BC9434" stroke-width="0.376003" stroke-linejoin="round"/>
<path d="M53.2116 28.707L53.4141 29.7569C53.4141 29.7569 54.1405 29.7668 54.2004 29.7569C54.2602 29.7471 55.3972 30.6938 55.597 30.9091C55.7968 31.1244 55.8953 31.3269 56.015 31.2503C56.1347 31.1736 56.0361 30.6152 55.701 30.0056C55.5685 29.7658 55.4 29.3883 55.2352 29.0166L55.376 28.9518C55.376 28.9518 54.9443 27.9618 54.8485 27.8349C54.8154 27.7917 54.7251 27.8133 54.6211 27.8595C54.4149 27.8526 53.2116 28.707 53.2116 28.707Z" fill="#BC9434" stroke="#BC9434" stroke-width="0.376003" stroke-linejoin="round"/>
<path d="M43.3791 25.8982C43.3791 25.8982 43.1093 26.0781 43.1434 26.1863C43.1774 26.2944 43.3956 26.4733 43.3956 26.4733C43.3956 26.4733 39.8364 29.75 39.7692 30.0017C39.702 30.2534 37.5504 35.807 37.5504 35.807L39.2002 36.6918L41.4024 31.1018L45.1467 28.5457C45.1467 28.5457 47.8534 32.6571 48.1232 32.6217C48.3929 32.5863 53.9306 29.8316 53.9306 29.8316L53.3902 28.4789L48.7115 30.1895L47.2504 26.6896C47.2504 26.6896 47.6039 26.0417 47.3857 25.4116C47.1675 24.7814 46.5268 23.8111 46.5268 23.8111L43.3791 25.8982Z" fill="#BC9434" stroke="#BC9434" stroke-width="0.376003" stroke-linejoin="round"/>
<path d="M45.1458 28.5408C45.1458 28.5408 46.9392 27.3945 47.0911 27.2323" stroke="#999999" stroke-width="0.376003" stroke-linejoin="round"/>
<path d="M44.1671 25.8806C44.3741 25.6835 44.5944 25.5031 44.8263 25.3408C45.1798 25.1255 45.9882 25.1609 45.9882 25.1609" stroke="#999999" stroke-width="0.376003" stroke-linejoin="round"/>
<path d="M43.5973 26.4193C43.5973 26.4193 43.7169 26.3013 43.8863 26.1411" stroke="#999999" stroke-width="0.376003" stroke-linejoin="round"/>
<path d="M46.3749 24.9633C46.3749 24.9633 45.7019 24.8728 45.178 25.0174" stroke="#999999" stroke-width="0.376003" stroke-linejoin="round"/>
<path d="M45.5665 28.3609C45.5665 28.3609 46.9641 28.6313 47.4189 28.5949" stroke="#999999" stroke-width="0.376003" stroke-linejoin="round"/>
<path d="M47.266 29.5161C47.3747 29.5505 47.4824 29.579 47.5873 29.6016" stroke="#999999" stroke-width="0.376003" stroke-linejoin="round"/>
<path d="M45.5499 28.6854C46.0027 28.9707 46.4777 29.2138 46.9696 29.4119" stroke="#999999" stroke-width="0.376003" stroke-linejoin="round"/>
<path d="M43.1084 25.5748L43.3781 25.8982L46.5268 23.8121L46.3242 23.5968L43.1084 25.5748Z" fill="#BC9434" stroke="#BC9434" stroke-width="0.376003" stroke-linejoin="round"/>
<path d="M47.6886 21.4103L47.9777 21.8262L48.6847 21.5647L48.5402 21.1941L47.6886 21.4103Z" fill="white" stroke="#BC9434" stroke-width="0.376003" stroke-linejoin="round"/>
<path d="M40.2488 18.3784C40.2488 18.3784 38.8485 18.4001 38.1314 18.3784C37.4142 18.3568 35.4099 17.9302 35.2497 18.2506C35.0895 18.5711 35.4293 19.4471 36.4107 19.7892C37.3921 20.1313 39.5326 20.4518 39.5326 20.4518C39.5326 20.4518 40.4127 21.6316 40.9136 22.3325C41.4144 23.0335 42.3341 24.6625 42.4142 24.8119C42.4943 24.9614 42.8543 25.8806 43.3349 25.6879C43.8154 25.4952 46.4365 23.7649 46.4365 23.6361C46.4365 23.5073 46.4365 23.3412 46.3573 23.2301C46.2782 23.119 45.3363 21.8842 45.1762 21.5588C45.016 21.2334 44.4396 19.6575 44.4396 19.6575L45.7 19.337C45.7 19.337 47.1813 21.0889 47.4612 21.3671C47.7411 21.6453 47.9814 21.5382 47.9814 21.5382C47.9814 21.5382 48.6424 21.4094 48.6617 21.196C48.6811 20.9827 46.4605 17.3491 46.2404 17.2213C46.0204 17.0935 44.5391 17.6274 43.9388 17.7335C43.3385 17.8397 42.6177 17.883 41.7771 18.0973C41.274 18.2267 40.7635 18.3206 40.2488 18.3784V18.3784Z" fill="white" stroke="#BC9434" stroke-width="0.376003" stroke-linejoin="round"/>
<path d="M44.4295 19.6614L42.428 20.2591" stroke="#BC9434" stroke-width="0.376003" stroke-linejoin="round"/>
<path d="M43.5282 19.9386L42.8285 20.5373" stroke="#BC9434" stroke-width="0.376003" stroke-linejoin="round"/>
<path d="M37.8257 19.6162L37.5247 19.4687" stroke="#BC9434" stroke-width="0.376003" stroke-linejoin="round"/>
<path d="M38.1249 19.4264L39.5261 20.4518L38.0439 19.7243" stroke="#BC9434" stroke-width="0.376003" stroke-linejoin="round"/>
<path d="M42.8976 22.7258C43.6018 22.8821 44.8309 23.1121 45.8676 23.0876" stroke="#BC9434" stroke-width="0.376003" stroke-linejoin="round"/>
<path d="M42.3203 22.5862C42.3203 22.5862 42.4409 22.6186 42.6462 22.6678" stroke="#BC9434" stroke-width="0.376003" stroke-linejoin="round"/>
<path d="M44.494 22.7769C44.494 22.7769 45.3281 22.9617 45.8851 22.9617" stroke="#BC9434" stroke-width="0.376003" stroke-linejoin="round"/>
<path d="M40.2231 19.5071L40.526 20.5895L40.92 19.4746L40.2231 19.5071Z" fill="#BC9434" stroke="#BC9434" stroke-width="0.376003" stroke-linejoin="round"/>
<path d="M40.3142 18.6911L39.9146 19.161L40.6033 19.7499L40.989 19.0145L40.3142 18.6911Z" fill="white" stroke="#BC9434" stroke-width="0.376003" stroke-linejoin="round"/>
<path d="M39.9146 19.161L40.108 20.0291L40.3833 19.5582L39.9146 19.161Z" fill="white" stroke="#BC9434" stroke-width="0.376003" stroke-linejoin="round"/>
<path d="M38.634 15.3672C38.634 15.3672 38.3578 16.0878 38.3726 16.2786C38.3873 16.4693 38.5245 16.5872 38.5107 16.8084C38.4969 17.0296 38.0697 17.4406 38.1664 17.5438C38.263 17.647 38.6202 17.8083 38.6202 17.8083C38.6202 17.8083 39.006 18.6616 39.1441 18.6931C39.2822 18.7245 40.0251 18.3254 40.0251 18.3254L40.6033 19.7509L41.7468 17.943L41.361 17.1339C41.361 17.1339 41.6915 16.2225 41.3748 15.4724C41.0581 14.7223 40.0528 14.678 39.5703 14.7665C39.0879 14.855 38.7307 15.0733 38.634 15.3672Z" fill="white" stroke="#BC9434" stroke-width="0.376003" stroke-miterlimit="10"/>
<path d="M39.5575 15.2069C39.4455 15.1815 39.3296 15.1829 39.2182 15.211C39.1068 15.239 39.0026 15.293 38.913 15.3691C38.5696 15.6336 38.2796 15.9275 38.1424 15.6641C38.0052 15.4006 38.4315 14.9582 38.4315 14.9582C38.4315 14.9582 38.0872 14.855 38.2253 14.4293C38.3634 14.0036 38.8697 13.9141 38.8697 14.0616C38.8697 14.2091 38.8283 14.3261 39.2141 14.1206C39.5998 13.9151 39.806 13.8551 39.8889 14.0911C39.9717 14.327 40.4671 14.1894 41.0314 14.5315C41.5958 14.8737 41.7339 15.0909 41.6096 15.8558C41.4853 16.6206 41.4586 16.9873 41.3619 17.1338C41.2653 17.2803 40.9209 17.3245 40.77 17.2665C40.619 17.2085 40.7009 17.0453 40.7009 17.0453C40.7009 17.0453 41.1005 16.6187 40.9209 16.2805C40.7414 15.9423 40.4809 16.0898 40.398 16.2805C40.3152 16.4712 40.3566 16.6334 40.2323 16.6334C40.108 16.6334 39.9984 16.5351 39.9708 16.3247C39.9432 16.1143 39.8475 15.9315 39.7646 15.8981C39.6817 15.8646 39.4755 16.0603 39.4884 15.7221C39.4932 15.527 39.5612 15.3397 39.6808 15.1922L39.5575 15.2069Z" fill="#BC9434" stroke="#BC9434" stroke-width="0.376003" stroke-miterlimit="10"/>
<path d="M38.635 16.6609C38.6314 16.5673 38.6602 16.4755 38.7159 16.403C38.7715 16.3305 38.8502 16.2823 38.9369 16.2677" stroke="#BC9434" stroke-width="0.376003" stroke-miterlimit="10"/>
<path d="M38.96 16.8065C38.9867 16.8861 38.9784 16.9628 38.9425 16.9765C38.9066 16.9903 38.8568 16.9352 38.8301 16.8546C38.8034 16.774 38.8117 16.6983 38.8476 16.6845C38.8835 16.6708 38.9342 16.7258 38.96 16.8065Z" fill="#BC9434"/>
<path d="M41.7191 17.4701L40.5214 19.102L40.7414 19.9701L42.1463 17.882L41.7191 17.4701Z" fill="white" stroke="#BC9434" stroke-width="0.376003" stroke-linejoin="round"/>
<path d="M40.525 20.5894C40.5459 20.6632 40.585 20.7296 40.6384 20.7815C40.6917 20.8335 40.7572 20.869 40.8279 20.8844C41.0701 20.9325 41.4936 20.7389 41.7053 20.1569C41.9171 19.5749 42.3562 17.9754 42.6131 17.587C42.8699 17.1987 43.7178 17.1839 44.157 17.2154C44.5961 17.2469 44.8981 16.7956 45.3069 16.5852C45.5463 16.461 45.8011 16.3739 46.0637 16.3267L46.5792 15.2069L45.5048 15.1745C45.5048 15.1745 44.4452 15.7083 44.1726 16.0475C43.9001 16.3866 43.704 16.3424 43.1286 16.4673C42.5532 16.5921 42.2365 16.8556 42.0091 17.5988C41.7817 18.3421 41.4798 20.2168 41.1465 20.4754C41.0613 20.5508 40.9591 20.601 40.85 20.621C40.741 20.641 40.6289 20.6301 40.525 20.5894V20.5894Z" fill="#BC9434" stroke="#BC9434" stroke-width="0.376003" stroke-linejoin="round"/>
<path d="M36.8047 19.3714C36.929 19.51 36.9474 19.7066 36.8452 19.8128C36.743 19.919 36.558 19.8924 36.4337 19.7548C36.3094 19.6172 36.291 19.4196 36.3932 19.3134C36.4954 19.2072 36.6795 19.2377 36.8047 19.3714Z" fill="white" stroke="#BC9434" stroke-width="0.376003" stroke-linejoin="round"/>
<path d="M36.7062 19.6398L36.5064 19.4137C36.5064 19.4137 36.0958 18.2713 35.548 17.9655C35.0002 17.6598 34.341 18.1248 34.2039 18.5633C34.0667 19.0017 34.5528 19.7332 35.0628 19.9593C35.4724 20.1231 35.8928 20.2545 36.3204 20.3525C36.3204 20.3525 36.557 19.7597 36.7062 19.6398Z" fill="white" stroke="#BC9434" stroke-width="0.376003" stroke-linejoin="round"/>
<path d="M35.9964 20.2513L36.0176 20.2808C36.1971 20.329 36.3204 20.3575 36.3204 20.3575C36.3204 20.3575 36.557 19.7598 36.7062 19.6398L36.5064 19.4137C36.5064 19.4137 35.9338 19.5199 35.9964 20.2513Z" fill="#BC9434" stroke="#BC9434" stroke-width="0.376003" stroke-linejoin="round"/>
<path d="M37.9629 21.4074C38.0354 21.5187 38.1191 21.6212 38.2124 21.7132C38.3118 21.7938 38.3486 21.8862 38.2243 21.8734C38.0739 21.8696 37.9309 21.8025 37.8266 21.6866C37.7014 21.5411 37.6149 21.4212 37.6149 21.4212L37.9629 21.4074Z" fill="white" stroke="#BC9434" stroke-width="0.376003" stroke-linejoin="round"/>
<path d="M38.0255 21.0073C38.0255 21.0073 38.1995 21.313 38.1378 21.3926C38.0761 21.4723 37.5026 21.4988 37.4151 21.4723C37.3276 21.4457 37.3902 21.3258 37.3902 21.3258L38.0255 21.0073Z" fill="white" stroke="#BC9434" stroke-width="0.376003" stroke-linejoin="round"/>
<path d="M38.0126 20.6504C38.0126 20.6504 38.1498 20.8765 38.1249 20.9689C38.1001 21.0614 37.5155 21.3415 37.3884 21.3278C37.2614 21.314 37.277 21.2088 37.277 21.2088L38.0126 20.6504Z" fill="white" stroke="#BC9434" stroke-width="0.376003" stroke-linejoin="round"/>
<path d="M37.7769 20.384C37.7769 20.384 38.0006 20.3575 38.0255 20.5305C38.0504 20.7035 37.9132 20.7566 37.8266 20.8363C37.7401 20.9159 37.3663 21.2089 37.2789 21.2089C37.1914 21.2089 37.0294 20.9424 37.0294 20.9424L37.7769 20.384Z" fill="white" stroke="#BC9434" stroke-width="0.376003" stroke-linejoin="round"/>
<path d="M36.7062 19.6398C36.7062 19.6398 37.3157 19.8797 37.602 19.9593C37.8883 20.0389 37.9012 20.2916 37.7769 20.384C37.6526 20.4764 37.266 20.9827 37.1536 21.0093C37.0413 21.0358 36.8774 20.9031 36.8774 20.9031C36.8774 20.9031 36.5285 20.7163 36.4788 20.5708C36.4485 20.4827 36.3919 20.4078 36.3177 20.3575C36.3177 20.3575 36.2827 19.8128 36.7062 19.6398Z" fill="white" stroke="#BC9434" stroke-width="0.376003" stroke-linejoin="round"/>
<path d="M36.8802 20.903C36.8802 20.903 36.7808 20.6504 36.8682 20.5835C36.9557 20.5167 37.092 20.6632 37.092 20.6632C37.1118 20.5861 37.1456 20.514 37.1914 20.4508" stroke="#BC9434" stroke-width="0.376003" stroke-linejoin="round"/>
<path d="M47.9823 21.8262C48.0152 22.0168 48.0358 22.2096 48.044 22.4033C48.0338 22.538 47.8138 23.0984 47.8028 23.1318C47.7917 23.1652 47.8764 23.2999 47.9077 23.3441C47.939 23.3884 48.0863 23.3667 48.2014 23.467C48.3165 23.5673 48.4527 23.815 48.6212 23.762C48.7897 23.7089 48.8974 23.467 48.8974 23.467C48.8974 23.467 49.285 23.2212 49.2951 23.0984C49.3004 22.9469 49.2827 22.7955 49.2427 22.6501C49.2114 22.5517 48.6903 21.5686 48.6903 21.5686L47.9823 21.8262Z" fill="white" stroke="#BC9434" stroke-width="0.376003" stroke-linejoin="round"/>
<path d="M48.0918 23.0305C48.0918 23.0305 48.2907 23.0639 48.3754 23.3894" stroke="#BC9434" stroke-width="0.376003" stroke-linejoin="round"/>
<path d="M48.1968 23.1986L47.7457 23.4454L48.1655 24.285" stroke="#BC9434" stroke-width="1.12801" stroke-linecap="round" stroke-linejoin="round"/>
<path d="M49.2979 22.7955L49.4231 22.7395L49.8429 23.6351" stroke="#BC9434" stroke-width="1.12801" stroke-linejoin="round"/>
<path d="M51.3964 22.7364L46.8843 24.8867C46.7083 24.9705 46.6293 25.1909 46.7078 25.3788L47.9186 28.2759C47.9971 28.4638 48.2034 28.5481 48.3794 28.4643L52.8916 26.314C53.0676 26.2301 53.1466 26.0098 53.068 25.8219L51.8573 22.9248C51.7787 22.7369 51.5724 22.6525 51.3964 22.7364Z" fill="#BC9434" stroke="#BC9434" stroke-width="0.376003" stroke-linejoin="round"/>
</svg>
